<svg version="1.2" baseProfile="tiny-ps" xmlns="http://www.w3.org/2000/svg" viewBox="0 0 273 273" width="273" height="273">
	<title>Git-svg</title>
	<style>
		tspan { white-space:pre }
		.shp0 { fill: #413000 } 
		.shp1 { fill: #f05133 } 
	</style>
	<path id="Layer" fill-rule="evenodd" class="shp0" d="M183.82 118.14L183.82 118.14C183.82 118.14 183.82 118.14 183.82 118.13M187.85 129.12C187.85 141.2 178.38 148.27 164.68 148.27C161.19 148.27 158.04 147.84 156.08 147.29L152.49 153.06L163.15 153.71C181.97 154.91 193.06 155.45 193.06 169.92C193.06 182.43 182.08 189.5 163.15 189.5C143.46 189.5 135.95 184.49 135.95 175.9C135.95 171 138.13 168.4 141.94 164.8C138.35 163.28 137.15 160.57 137.15 157.63C137.15 155.23 138.35 153.06 140.31 150.99C142.26 148.92 144.44 146.85 147.05 144.46C141.72 141.85 137.69 136.19 137.69 128.14C137.69 115.63 145.96 107.04 162.6 107.04C167.28 107.04 170.11 107.47 172.62 108.13L193.83 108.13L193.83 117.37L183.82 118.14C185.78 120.64 187.85 124.12 187.85 129.12ZM151.62 167.75L151.62 167.75C151.62 167.75 151.62 167.75 151.62 167.75L151.62 167.75ZM148.79 173.51C148.79 177.86 154.34 179.17 161.95 179.17C168.26 179.17 176.86 178.73 176.86 172.86C176.86 169.37 172.72 169.16 167.5 168.83L151.62 167.75C150.2 169.48 148.79 171.33 148.79 173.51ZM163.59 117.81C157.6 117.81 153.15 120.74 153.15 127.82C153.15 133.15 156.09 136.85 163.27 136.85C169.36 136.85 173.49 133.26 173.49 127.6C173.49 121.18 169.79 117.81 163.59 117.81L163.59 117.81Z" />
	<path id="Layer" class="shp0" d="M212.98 98.37C206.78 98.37 203.19 94.77 203.19 88.57C203.19 82.37 206.78 79 212.98 79C219.29 79 222.88 82.37 222.88 88.57C222.88 94.77 219.29 98.37 212.98 98.37ZM198.94 163.74L198.94 155.15L204.49 154.39C206.02 154.17 206.23 153.85 206.23 152.21L206.23 120.23C206.23 119.04 205.91 118.27 204.82 117.95L198.94 115.88L200.14 107.07L222.66 107.07L222.66 152.21C222.66 153.96 222.77 154.17 224.4 154.39L229.95 155.15L229.95 163.74L198.94 163.74" />
	<path id="Layer" class="shp0" d="M272.97 159.53C268.29 161.81 261.44 163.88 255.23 163.88C242.29 163.88 237.4 158.66 237.4 146.36L237.4 117.86C237.4 117.21 237.4 116.77 236.52 116.77L228.91 116.77L228.91 107.09C238.48 106 242.29 101.21 243.49 89.35L253.82 89.35L253.82 104.81C253.82 105.57 253.82 105.89 254.69 105.89L270.03 105.89L270.03 116.77L253.82 116.77L253.82 142.77C253.82 149.19 255.35 151.69 261.22 151.69C264.27 151.69 267.42 150.93 270.03 149.95L272.97 159.53" />
	<path id="Layer" class="shp1" d="M111.78 130.98L62.03 81.24C59.17 78.37 54.53 78.37 51.66 81.24L41.33 91.57L54.43 104.67C57.48 103.64 60.97 104.33 63.4 106.76C65.84 109.2 66.52 112.72 65.47 115.78L78.1 128.41C81.15 127.35 84.68 128.03 87.12 130.48C90.53 133.89 90.53 139.41 87.12 142.82C83.7 146.23 78.18 146.23 74.77 142.82C72.2 140.26 71.57 136.49 72.87 133.33L61.09 121.55L61.09 152.54C61.92 152.95 62.7 153.5 63.4 154.19C66.81 157.6 66.81 163.13 63.4 166.54C59.99 169.95 54.46 169.95 51.05 166.54C47.64 163.13 47.64 157.6 51.05 154.19C51.9 153.35 52.87 152.71 53.91 152.29L53.91 121.01C52.87 120.58 51.9 119.95 51.05 119.1C48.47 116.52 47.85 112.73 49.17 109.56L36.26 96.64L2.15 130.75C-0.72 133.61 -0.72 138.26 2.15 141.13L51.89 190.86C54.76 193.73 59.4 193.73 62.27 190.86L111.78 141.36C114.64 138.49 114.64 133.85 111.78 130.98" />
</svg>