<svg xmlns="http://www.w3.org/2000/svg" viewBox="0 0 512 512">
	<title>HTML5 Logo</title>
	<path d="M108.4 0h23v22.8h21.2V0h23v69h-23V46h-21v23h-23.2M206 23h-20.3V0h63.7v23H229v46h-23M259.5 0h24.1l14.8 24.3L313.2 0h24.1v69h-23V34.8l-16.1 24.8l-16.1-24.8v34.2h-22.6M348.7 0h23v46.2h32.6V69h-55.6"/>
	<path fill="#e44d26" d="M107.6 471l-33-370.4h362.8l-33 370.2L255.7 512"/>
	<path fill="#f16529" d="M256 480.5l120-33.3L404.3 131H256"/>
	<path fill="#ebebeb" d="M256 268.2h-60l-4.2-46.5H256v-45.4H142l1.2 12.2 11.2 125H256M256 386.2h-.2l-50.6-13.6-3.2-36.3h-45.6l6.4 71.3 93 26 .2-.2"/>
	<path fill="#fff" d="M255.8 268.2v45.4h56l-5.3 59-50.7 13.6v47.2l93-25.8.8-7.6 10.7-119.6 1-12.2h-12M255.8 176.3V221.7h109.6l1-10.2 2-23 1.2-12.2"/>
</svg>