<svg version="1.2" baseProfile="tiny-ps" xmlns="http://www.w3.org/2000/svg" viewBox="0 0 443 443" width="443" height="443">
	<title>NodeJS-svg</title>
	<defs>
		<clipPath clipPathUnits="userSpaceOnUse" id="cp1">
			<path d="M160.72 148.59L118.59 172.91C117.02 173.82 116.05 175.5 116.05 177.31L116.05 225.98C116.05 227.8 117.02 229.48 118.59 230.39L160.73 254.72C162.3 255.63 164.24 255.63 165.82 254.72L207.94 230.39C209.51 229.48 210.48 227.8 210.48 225.98L210.48 177.31C210.48 175.5 209.51 173.82 207.93 172.91L165.81 148.59C165.02 148.14 164.14 147.91 163.26 147.91C162.38 147.91 161.5 148.14 160.71 148.59" />
		</clipPath>
		<linearGradient id="grd1" gradientUnits="userSpaceOnUse"  x1="193.664" y1="139.59" x2="132.798" y2="263.756">
			<stop offset="0.3" stop-color="#3e863d"  />
			<stop offset="0.5" stop-color="#55934f"  />
			<stop offset="0.8" stop-color="#5aad45"  />
		</linearGradient>
		<clipPath clipPathUnits="userSpaceOnUse" id="cp2">
			<path d="M117.09 229.07C117.49 229.59 118 230.05 118.59 230.39L154.73 251.26L160.75 254.72C161.65 255.24 162.68 255.46 163.69 255.39C164.02 255.36 164.36 255.3 164.69 255.2L209.12 173.84C208.78 173.47 208.38 173.16 207.94 172.9L180.35 156.97L165.77 148.58C165.35 148.34 164.91 148.17 164.45 148.05L117.09 229.07Z" />
		</clipPath>
		<linearGradient id="grd2" gradientUnits="userSpaceOnUse"  x1="108.179" y1="243.365" x2="219.043" y2="161.449">
			<stop offset="0.57" stop-color="#3e863d"  />
			<stop offset="0.72" stop-color="#619857"  />
			<stop offset="1" stop-color="#76ac64"  />
		</linearGradient>
		<clipPath clipPathUnits="userSpaceOnUse" id="cp3">
			<path d="M162.76 147.94C162.05 148.01 161.36 148.23 160.73 148.59L118.72 172.84L164.02 255.35C164.65 255.26 165.27 255.05 165.83 254.72L207.96 230.39C209.26 229.63 210.15 228.36 210.42 226.91L164.24 148.02C163.89 147.95 163.56 147.92 163.2 147.92C163.06 147.92 162.93 147.92 162.79 147.94" />
		</clipPath>
		<linearGradient id="grd3" gradientUnits="userSpaceOnUse"  x1="118.745" y1="201.636" x2="210.414" y2="201.636">
			<stop offset="0.16" stop-color="#6bbf47"  />
			<stop offset="0.38" stop-color="#79b461"  />
			<stop offset="0.47" stop-color="#75ac64"  />
			<stop offset="0.7" stop-color="#659e5a"  />
			<stop offset="0.9" stop-color="#3e863d"  />
		</linearGradient>
	</defs>
	<style>
		tspan { white-space:pre }
		.shp0 { fill: #689f63 } 
		.shp1 { fill: #333333 } 
		.shp2 { fill: url(#grd1) } 
		.shp3 { fill: url(#grd2) } 
		.shp4 { fill: url(#grd3) } 
	</style>
	<path id="Layer" class="shp0" d="M218.65 356.93C217.19 356.93 215.74 356.55 214.46 355.81L201.12 347.91C199.13 346.8 200.1 346.41 200.76 346.18C203.41 345.25 203.95 345.04 206.79 343.43C207.09 343.26 207.47 343.32 207.78 343.5L218.03 349.58C218.4 349.78 218.92 349.78 219.26 349.58L259.21 326.52C259.58 326.31 259.82 325.88 259.82 325.44L259.82 279.34C259.82 278.88 259.58 278.47 259.21 278.24L219.27 255.2C218.9 254.98 218.41 254.98 218.04 255.2L178.12 278.24C177.73 278.46 177.48 278.89 177.48 279.33L177.48 325.43C177.48 325.87 177.72 326.29 178.1 326.5L189.04 332.82C194.98 335.79 198.61 332.29 198.61 328.77L198.61 283.27C198.61 282.62 199.12 282.12 199.77 282.12L204.83 282.12C205.46 282.12 205.98 282.62 205.98 283.27L205.98 328.79C205.98 336.71 201.66 341.26 194.15 341.26C191.84 341.26 190.02 341.26 184.94 338.76L174.46 332.72C171.87 331.22 170.27 328.42 170.27 325.43L170.27 279.33C170.27 276.33 171.87 273.53 174.46 272.05L214.45 248.98C216.98 247.55 220.34 247.55 222.85 248.98L262.79 272.06C265.37 273.55 266.98 276.34 266.98 279.34L266.98 325.44C266.98 328.43 265.37 331.22 262.79 332.72L222.85 355.79C221.57 356.53 220.12 356.91 218.64 356.91" />
	<path id="Layer" fill-rule="evenodd" class="shp0" d="M230.99 325.16C213.51 325.16 209.84 317.14 209.84 310.41C209.84 309.77 210.36 309.26 211 309.26L216.16 309.26C216.73 309.26 217.21 309.67 217.3 310.24C218.08 315.5 220.4 318.15 230.97 318.15C239.39 318.15 242.97 316.25 242.97 311.78C242.97 309.21 241.95 307.3 228.87 306.02C217.93 304.94 211.17 302.53 211.17 293.78C211.17 285.72 217.97 280.92 229.36 280.92C242.15 280.92 248.49 285.36 249.29 294.9C249.32 295.23 249.2 295.55 248.98 295.79C248.76 296.02 248.45 296.16 248.13 296.16L242.94 296.16C242.4 296.16 241.93 295.78 241.82 295.26C240.57 289.73 237.55 287.96 229.34 287.96C220.15 287.96 219.08 291.16 219.08 293.56C219.08 296.47 220.34 297.32 232.74 298.96C245.02 300.59 250.85 302.89 250.85 311.52C250.85 320.22 243.59 325.21 230.93 325.21M288.54 276.86C288.54 281.1 285.07 284.56 280.84 284.56C276.64 284.56 273.14 281.14 273.14 276.86C273.14 272.5 276.72 269.16 280.84 269.16C284.99 269.16 288.53 272.51 288.53 276.86L288.54 276.86ZM274.39 276.84C274.39 280.42 277.28 283.32 280.83 283.32C284.41 283.32 287.3 280.36 287.3 276.84C287.3 273.25 284.37 270.4 280.82 270.4C277.32 270.4 274.38 273.21 274.38 276.83L274.39 276.84ZM277.96 272.54L280.93 272.54C281.95 272.54 283.95 272.54 283.95 274.82C283.95 276.41 282.93 276.74 282.32 276.94C283.51 277.02 283.59 277.8 283.75 278.9C283.83 279.59 283.96 280.78 284.2 281.18L282.37 281.18C282.32 280.78 282.04 278.58 282.04 278.46C281.92 277.97 281.75 277.73 281.14 277.73L279.63 277.73L279.63 281.19L277.96 281.19L277.96 272.54ZM279.59 276.32L280.93 276.32C282.03 276.32 282.24 275.55 282.24 275.1C282.24 273.92 281.43 273.92 280.98 273.92L279.6 273.92L279.59 276.32Z" />
	<path id="Layer" fill-rule="evenodd" class="shp1" d="M94.85 242.18C94.85 243.09 94.36 243.94 93.59 244.39C92.8 244.86 91.82 244.86 91.03 244.39L65.86 229.98C64.28 229.04 63.3 227.36 63.3 225.54L63.3 194.88C63.3 193.05 62.32 191.36 60.74 190.45L50.02 184.27C49.25 183.81 48.35 183.59 47.48 183.59C46.59 183.59 45.71 183.82 44.92 184.28L34.2 190.45C32.61 191.36 31.64 193.05 31.64 194.88L31.64 225.55C31.64 227.37 30.67 229.04 29.08 229.99L3.9 244.41C3.12 244.88 2.14 244.88 1.36 244.41C0.56 243.95 0.09 243.1 0.09 242.19L0 176.56C0 174.72 0.98 173.03 2.56 172.11L44.92 147.73C45.64 147.31 46.44 147.09 47.26 147.06L47.69 147.06C48.51 147.09 49.31 147.31 50.02 147.73L92.38 172.1C93.97 173.02 94.94 174.71 94.94 176.55L94.85 242.18ZM323.94 100.39C325.56 101.3 326.57 103.01 326.57 104.86L326.57 226.78C326.57 228.61 325.59 230.29 324.01 231.21L281.64 255.69C280.05 256.6 278.1 256.6 276.52 255.69L234.15 231.22C232.57 230.3 231.59 228.62 231.59 226.79L231.59 177.87C231.59 176.05 232.57 174.36 234.15 173.45L276.52 149C278.11 148.09 280.05 148.09 281.63 149L292.24 155.11C292.8 155.43 293.48 155.43 294.03 155.11C294.59 154.79 294.93 154.2 294.93 153.56L294.93 88.56C294.93 87.65 295.41 86.81 296.19 86.35C296.97 85.89 297.94 85.88 298.73 86.32L323.94 100.39ZM294.8 193.93C294.8 193.47 294.56 193.05 294.16 192.82L279.61 184.42C279.21 184.19 278.72 184.19 278.32 184.42L263.78 192.82C263.39 193.05 263.15 193.47 263.15 193.93L263.15 210.73C263.15 211.18 263.39 211.6 263.79 211.83L278.34 220.22C278.73 220.44 279.22 220.44 279.62 220.22L294.16 211.83C294.56 211.61 294.8 211.18 294.8 210.73L294.8 193.93ZM414.41 208.25C413.62 208.71 412.64 208.71 411.85 208.26C411.06 207.8 410.57 206.95 410.57 206.04L410.57 193.98C410.57 193.07 410.08 192.22 409.29 191.77L396.02 184.12C395.23 183.66 394.26 183.66 393.47 184.12L380.21 191.77C379.41 192.22 378.93 193.07 378.93 193.99L378.93 209.32C378.93 210.24 379.42 211.08 380.22 211.53L422.84 236C423.64 236.44 424.13 237.31 424.13 238.22C424.13 239.14 423.62 240 422.82 240.44L397.36 254.59C395.79 255.47 393.89 255.45 392.34 254.56L350.25 230.57C348.66 229.66 347.67 227.97 347.67 226.13L347.67 177.22C347.67 175.39 348.64 173.72 350.23 172.8L392.59 148.34C394.18 147.43 396.13 147.43 397.72 148.34L439.82 172.78C441.4 173.7 442.37 175.39 442.37 177.21L442.37 189.07C442.37 190.89 441.4 192.57 439.83 193.49L414.41 208.25Z" />
	<path id="Layer" fill-rule="evenodd" class="shp0" d="M394.54 191.2C394.84 191.02 395.21 191.02 395.52 191.2L403.65 195.89C403.95 196.07 404.14 196.39 404.14 196.74L404.14 206.13C404.14 206.48 403.95 206.8 403.65 206.98L395.52 211.67C395.21 211.85 394.84 211.85 394.54 211.67L386.41 206.98C386.1 206.8 385.91 206.48 385.91 206.13L385.91 196.74C385.91 196.39 386.09 196.07 386.4 195.89L394.54 191.2Z" />
	<g id="Clip-Path" clip-path="url(#cp1)">
		<g id="Layer">
			<path id="Layer" class="shp2" d="M253.06 168.78L134.34 110.59L73.47 234.76L192.18 292.95L253.06 168.78Z" />
		</g>
	</g>
	<g id="Clip-Path" clip-path="url(#cp2)">
		<g id="Layer">
			<path id="Layer" class="shp3" d="M65.76 185.99L149.59 299.44L260.45 217.53L176.62 104.09L65.76 185.99Z" />
		</g>
	</g>
	<g id="Clip-Path" clip-path="url(#cp3)">
		<g id="Layer">
			<path id="Layer" class="shp4" d="M118.71 147.92L118.71 255.35L210.4 255.35L210.4 147.92L118.71 147.92Z" />
		</g>
	</g>
</svg>