<svg version="1.2" baseProfile="tiny-ps" xmlns="http://www.w3.org/2000/svg" viewBox="0 0 23 23" width="23" height="23">
	<title>React-svg</title>
	<style>
		tspan { white-space:pre }
		.shp0 { fill: #61dafb } 
	</style>
	<path id="Layer" fill-rule="evenodd" class="shp0" d="M23 11.21C23 12.66 21.28 14.07 18.65 14.94C18.51 14.99 18.37 15.03 18.22 15.08C18.27 15.29 18.32 15.49 18.36 15.69C18.88 18.32 18.48 20.48 17.24 21.2C16.05 21.89 14.12 21.21 12.16 19.53C11.95 19.34 11.74 19.15 11.54 18.96C11.38 19.11 11.22 19.26 11.06 19.4C9.04 21.16 6.97 21.9 5.74 21.18C4.54 20.5 4.17 18.48 4.65 15.95C4.7 15.67 4.76 15.4 4.83 15.13C4.62 15.07 4.41 15 4.21 14.93C1.67 14.07 0 12.64 0 11.21C0 9.83 1.56 8.5 3.99 7.65C4.26 7.56 4.55 7.47 4.84 7.39C4.78 7.13 4.72 6.88 4.67 6.62C4.17 4.04 4.52 1.98 5.72 1.29C6.97 0.57 9.05 1.34 11.13 3.19C11.26 3.3 11.39 3.42 11.51 3.54C11.7 3.36 11.89 3.18 12.08 3.01C14.07 1.29 16.03 0.57 17.23 1.26C18.48 1.98 18.85 4.17 18.28 6.89C18.25 7.06 18.21 7.23 18.17 7.4C18.42 7.47 18.67 7.55 18.91 7.63C21.39 8.49 23 9.83 23 11.21ZM12.2 4.24C12.37 4.43 12.55 4.63 12.72 4.82C12.88 5.02 13.05 5.22 13.21 5.42C13.37 5.62 13.53 5.83 13.69 6.04C13.84 6.24 14 6.45 14.14 6.67C14.4 6.69 14.66 6.72 14.92 6.75C15.18 6.78 15.43 6.82 15.69 6.86C15.95 6.9 16.2 6.94 16.46 6.99C16.71 7.04 16.97 7.1 17.22 7.15C17.26 7 17.29 6.85 17.32 6.7C17.81 4.35 17.51 2.56 16.74 2.11C16.01 1.69 14.43 2.28 12.73 3.76C12.55 3.91 12.37 4.07 12.2 4.24ZM6.05 14.42C6.22 14.46 6.4 14.49 6.57 14.53C6.75 14.56 6.92 14.59 7.1 14.62C7.28 14.65 7.45 14.67 7.63 14.7C7.81 14.72 7.99 14.74 8.17 14.76C7.92 14.37 7.67 13.98 7.44 13.58C7.22 13.19 7 12.79 6.79 12.39C6.5 13.08 6.25 13.77 6.05 14.42ZM7.44 8.89C7.67 8.5 7.9 8.11 8.14 7.73C7.42 7.82 6.72 7.94 6.06 8.09C6.26 8.73 6.5 9.4 6.79 10.08C7 9.68 7.21 9.28 7.44 8.89ZM7.31 11.24C7.62 11.87 7.94 12.48 8.29 13.09C8.65 13.7 9.02 14.29 9.42 14.87C10.09 14.92 10.78 14.94 11.5 14.94C12.22 14.94 12.92 14.91 13.61 14.86C13.99 14.28 14.36 13.69 14.71 13.08L14.71 13.08C15.06 12.47 15.39 11.85 15.7 11.22C15.39 10.6 15.06 9.98 14.71 9.38C14.36 8.77 13.99 8.18 13.6 7.61C12.91 7.55 12.21 7.53 11.5 7.53C10.79 7.53 10.09 7.55 9.41 7.61C9.01 8.18 8.64 8.78 8.29 9.38L8.29 9.38C7.94 9.99 7.62 10.61 7.31 11.24L7.31 11.24ZM15.56 13.57C15.33 13.97 15.1 14.36 14.85 14.74C15.03 14.72 15.21 14.7 15.39 14.67C15.57 14.65 15.75 14.62 15.93 14.59C16.11 14.56 16.29 14.53 16.47 14.49C16.65 14.46 16.82 14.42 17 14.38C16.94 14.21 16.89 14.04 16.83 13.87C16.77 13.7 16.7 13.53 16.64 13.36C16.58 13.19 16.51 13.02 16.44 12.85C16.37 12.69 16.3 12.52 16.23 12.36C16.01 12.77 15.79 13.17 15.56 13.57ZM16.22 10.08C16.22 10.08 16.22 10.08 16.22 10.08C16.22 10.08 16.22 10.08 16.22 10.08ZM16.22 10.08C16.29 9.92 16.36 9.76 16.42 9.59C16.49 9.43 16.55 9.27 16.61 9.1C16.67 8.94 16.73 8.77 16.79 8.6C16.85 8.44 16.9 8.27 16.95 8.1C16.29 7.95 15.59 7.83 14.86 7.73C15.1 8.11 15.33 8.5 15.56 8.88C15.79 9.28 16.01 9.68 16.22 10.08ZM10.15 6.58C11.05 6.53 11.96 6.53 12.86 6.58C12.76 6.44 12.65 6.3 12.54 6.16C12.43 6.02 12.32 5.88 12.21 5.74C12.1 5.61 11.98 5.47 11.86 5.34C11.75 5.21 11.63 5.07 11.51 4.94C11.05 5.44 10.59 5.99 10.15 6.58ZM5.64 6.43L5.64 6.43C5.68 6.67 5.74 6.91 5.79 7.14C6.05 7.09 6.3 7.03 6.55 6.99C6.81 6.94 7.06 6.89 7.32 6.85C7.58 6.82 7.83 6.78 8.09 6.75C8.35 6.72 8.6 6.69 8.86 6.67C9.01 6.45 9.17 6.24 9.32 6.04C9.48 5.83 9.64 5.62 9.8 5.42C9.97 5.22 10.13 5.02 10.3 4.82C10.47 4.63 10.65 4.43 10.82 4.24C10.71 4.13 10.59 4.02 10.48 3.92C8.68 2.33 6.98 1.7 6.21 2.14C5.49 2.56 5.2 4.23 5.64 6.43ZM5.09 14.18C5.17 13.93 5.25 13.68 5.34 13.43C5.42 13.18 5.52 12.94 5.61 12.69C5.7 12.44 5.8 12.2 5.91 11.96C6.01 11.72 6.12 11.48 6.23 11.24C6.12 11 6.01 10.76 5.91 10.52C5.81 10.29 5.71 10.04 5.62 9.8C5.52 9.56 5.43 9.32 5.35 9.07C5.26 8.83 5.18 8.58 5.11 8.33C4.84 8.41 4.58 8.49 4.31 8.58C2.23 9.31 0.98 10.37 0.98 11.21C1 11.35 1.04 11.48 1.09 11.61C1.13 11.74 1.2 11.87 1.27 11.98C1.34 12.1 1.43 12.21 1.53 12.31C1.62 12.41 1.73 12.5 1.84 12.58C2.04 12.74 2.25 12.89 2.46 13.03C2.67 13.17 2.89 13.3 3.12 13.42C3.34 13.53 3.57 13.64 3.81 13.74C4.04 13.84 4.28 13.93 4.52 14C4.71 14.07 4.9 14.13 5.09 14.18ZM10.85 18.26C10.68 18.07 10.5 17.87 10.33 17.67C10.16 17.47 9.99 17.27 9.83 17.07C9.66 16.87 9.5 16.66 9.34 16.45C9.19 16.24 9.03 16.03 8.88 15.82C8.62 15.8 8.36 15.77 8.1 15.75C7.84 15.72 7.58 15.68 7.32 15.65C7.06 15.61 6.81 15.57 6.55 15.52C6.29 15.47 6.04 15.42 5.78 15.37C5.72 15.62 5.66 15.88 5.61 16.13C5.2 18.3 5.5 19.92 6.23 20.33C6.36 20.38 6.49 20.42 6.63 20.44C6.76 20.47 6.9 20.48 7.04 20.47C7.18 20.47 7.32 20.45 7.45 20.41C7.59 20.38 7.72 20.33 7.84 20.27L7.84 20.27C8.08 20.18 8.31 20.08 8.54 19.96C8.77 19.85 8.99 19.72 9.2 19.59C9.42 19.45 9.63 19.31 9.83 19.15C10.03 19 10.23 18.83 10.42 18.66C10.57 18.53 10.71 18.4 10.85 18.26ZM11.54 17.55C11.66 17.42 11.78 17.28 11.89 17.15C12.01 17.01 12.12 16.88 12.23 16.74C12.35 16.6 12.46 16.46 12.57 16.32C12.68 16.18 12.78 16.03 12.89 15.89C12.43 15.91 11.97 15.92 11.5 15.92C11.04 15.92 10.59 15.91 10.15 15.89C10.61 16.49 11.07 17.05 11.54 17.55L11.54 17.55ZM17.5 18.92C17.54 18.67 17.57 18.41 17.58 18.16C17.6 17.9 17.6 17.65 17.59 17.39C17.58 17.14 17.56 16.89 17.53 16.63C17.49 16.38 17.45 16.13 17.39 15.88C17.36 15.7 17.32 15.51 17.27 15.33C17.01 15.38 16.76 15.44 16.5 15.49C16.24 15.53 15.98 15.58 15.72 15.62C15.46 15.66 15.2 15.69 14.94 15.73C14.68 15.76 14.42 15.78 14.15 15.81C14.01 16.02 13.86 16.23 13.7 16.44C13.55 16.65 13.39 16.86 13.23 17.06C13.07 17.27 12.91 17.47 12.74 17.67C12.57 17.87 12.4 18.06 12.23 18.25C12.42 18.44 12.61 18.62 12.81 18.78C14.48 20.22 16.03 20.76 16.75 20.35C16.86 20.26 16.96 20.16 17.05 20.05C17.13 19.95 17.21 19.83 17.28 19.71C17.34 19.59 17.39 19.46 17.43 19.33C17.47 19.19 17.49 19.06 17.5 18.92L17.5 18.92ZM18.34 14.01C20.62 13.26 22.02 12.1 22.02 11.21C22.02 10.38 20.72 9.29 18.59 8.56C18.37 8.49 18.14 8.41 17.91 8.35C17.83 8.59 17.75 8.83 17.66 9.08C17.58 9.32 17.49 9.56 17.4 9.8C17.3 10.04 17.2 10.28 17.1 10.51C17 10.75 16.9 10.98 16.79 11.22C16.9 11.45 17.01 11.69 17.12 11.93C17.22 12.17 17.32 12.41 17.42 12.65C17.52 12.9 17.61 13.14 17.7 13.39C17.79 13.63 17.87 13.88 17.95 14.13C18.08 14.09 18.21 14.05 18.34 14.01L18.34 14.01L18.34 14.01Z" />
	<path id="Layer" class="shp0" d="M11.5 9.16C12.33 9.16 13.08 9.66 13.4 10.43C13.72 11.19 13.54 12.08 12.95 12.66C12.36 13.25 11.48 13.43 10.71 13.11C9.95 12.79 9.45 12.04 9.45 11.21C9.45 10.94 9.5 10.68 9.6 10.43C9.71 10.18 9.86 9.95 10.05 9.76C10.24 9.57 10.46 9.42 10.71 9.31C10.96 9.21 11.23 9.16 11.5 9.16Z" />
</svg>