<svg version="1.2" baseProfile="tiny-ps" xmlns="http://www.w3.org/2000/svg" viewBox="0 0 411 411" width="411" height="411">
	<title>Ruby_On_Rails-svg</title>
	<style>
		tspan { white-space:pre }
		.shp0 { fill: #cc0000 } 
	</style>
	<g id="Layer">
		<path id="Layer" fill-rule="evenodd" class="shp0" d="M385.7 257.4L385.7 248.6C373.46 248.6 378.09 248.63 379.38 248.64C378.61 248.64 376.17 248.63 370.3 248.6C362.2 248.6 351.6 242.3 351.6 230L351.6 223.7C351.6 211.4 362.3 204.8 370.3 204.8L401.3 204.8L401.3 223L369 223L369 231.4L385.3 231.4C394.3 231.4 403.9 238.3 403.9 250L403.9 257C403.5 270.7 392 275.6 385.3 275.6L352.6 275.6L352.6 257.5M199.7 275.6L171.3 275.6L154.7 258.4L154.7 275.6L135.5 275.6L135.5 204.3L173.7 204.3C173.7 204.3 194.9 206.4 194.9 229C194.9 251.6 177.4 253.1 177.4 253.1L199.7 275.6ZM174.4 230.3C174.4 223.8 170.1 222.2 170.1 222.2L154.7 222.2L154.7 238.5L170 238.5C170 238.5 174.4 236.8 174.4 230.3ZM260.9 223.4L260.9 275.6L242 275.6L242 263.1L223.7 263.1L223.7 275.6L204.2 275.6L204.2 223.4C204.2 217.4 208.9 204.8 222.8 204.8L242.3 204.8C247.1 204.8 260.9 208.2 260.9 223.4ZM241.9 242.9L241.9 225.6C241.9 225.6 241.8 221.7 236.4 221.7L229.7 221.7C223.6 221.7 223.6 225.6 223.6 225.6L223.6 242.9L241.9 242.9Z" />
		<path id="Layer" class="shp0" d="M269.8 204.8L290.1 204.8L290.1 275.6L269.8 275.6L269.8 204.8Z" />
		<path id="Layer" class="shp0" d="M318.6 257.3L318.6 204.8L298.4 204.8L298.4 257.3L298.4 275.6L318.6 275.6L345.9 275.6L345.9 257.3L318.6 257.3Z" />
		<path id="Layer" fill-rule="evenodd" class="shp0" d="M15 275.6L94 275.6C94 275.6 78.9 206.7 128.9 178.8C139.8 173.5 174.5 153.7 231.3 195.7C233.1 194.2 234.8 193 234.8 193C234.8 193 182.8 141.1 124.9 146.9C95.8 149.5 60 176 39 211C18 246 15 275.6 15 275.6Z" />
		<path id="Layer" fill-rule="evenodd" class="shp0" d="M15 275.6L94 275.6C94 275.6 78.9 206.7 128.9 178.8C139.8 173.5 174.5 153.7 231.3 195.7C233.1 194.2 234.8 193 234.8 193C234.8 193 182.8 141.1 124.9 146.9C95.8 149.5 60 176 39 211C18 246 15 275.6 15 275.6Z" />
		<path id="Layer" fill-rule="evenodd" class="shp0" d="M38.9 211C59.9 176 95.7 149.5 124.9 146.9C182.8 141.1 234.8 193 234.8 193C234.8 193 233.1 194.2 231.3 195.7C174.5 153.7 139.8 173.5 128.9 178.8C78.9 206.7 94 275.6 94 275.6L15 275.6C15 275.6 17.9 246 38.9 211ZM169.9 148.9L170.3 142.3C176.6 144.1 179.1 145.3 180 145.8L179.6 152.5C176.4 151.2 173.2 150 169.9 148.9Z" />
		<path id="Layer" fill-rule="evenodd" class="shp0" d="M180 175L179.6 181.2C176.3 180.5 173 180.1 169.7 180L170.1 173.7C173.3 173.9 176.6 174.3 180 175ZM124.4 142.9L122.5 137C125.8 136.6 129 136.4 132.1 136.4L134.1 142.5L133.1 142.5C130.2 142.5 127.3 142.6 124.4 142.9ZM146.7 176.1L148.9 182.7C146 183.6 143.1 184.8 140.2 186.2L137.9 179.3C140.4 178.2 143.3 177.1 146.7 176.1ZM84.8 157.4L80.2 150.4C82.9 148.8 85.5 147.4 88 146.1L92.5 153C89.9 154.3 87.4 155.8 84.8 157.4ZM119.2 191.3L123.7 198.1C121.5 200.4 119.5 202.7 117.8 205.2L113 198C114.8 195.7 116.9 193.4 119.2 191.3ZM101.5 219.2L108.7 224.9C107.7 228.8 107 232.7 106.6 236.6L98.5 230.2C99.3 226.6 100.2 222.9 101.5 219.2ZM47.9 190.6L40.2 184C42.5 181.5 45 179 47.6 176.5L54.7 182.7C52.3 185.2 50 187.9 47.9 190.6ZM19.5 239.4L8 235.2C9 232.5 11.1 227.5 13 223.2L24.5 227.4C22.9 231.1 20.8 236 19.5 239.4ZM107.8 259.5C108.4 264.2 109.3 268.6 110.2 272.5L98.2 268.2C97.7 265.2 97.2 260.9 97 255.6L107.8 259.5Z" />
	</g>
</svg>