<svg version="1.2" baseProfile="tiny-ps" xmlns="http://www.w3.org/2000/svg" viewBox="0 0 548 548" width="548" height="548">
	<title>Sass-svg</title>
	<style>
		tspan { white-space:pre }
		.shp0 { fill: #cd6799 } 
	</style>
	<path id="Layer" fill-rule="evenodd" class="shp0" d="M547.4 365.2C546.5 388.2 525.4 397.6 521.5 398.3C518.7 398.7 517.1 398.8 516.7 396.6C516.4 395.1 517.5 394.4 520.8 392.3C524.1 390.2 534.1 383.4 535.9 370.9C537.7 358.4 528.3 328.7 480.7 323.1C458.5 320.5 441.1 323.6 427.6 329.2C430.1 335.7 431.9 342.4 432.2 349.2C432.8 364.1 422.5 375.1 411.8 383C405.5 387.6 398.9 390.7 393.3 392.5C388.9 394.4 382.9 396.4 378.7 395.5C369.4 393.6 364.5 385.4 370.8 367.2C374.3 357.4 384.1 342.4 400 329.5C396.4 322.1 392.3 314.5 390.3 307.5C386.2 293.7 385 285.4 385 285.4C385 285.4 371.9 312.5 355 337.2C354 338.6 353.1 340 352.1 341.4C355.4 349.1 358.1 357.3 358.4 365.5C359 380.4 352.5 391.7 341.8 399.6C336 403.9 329.8 406.8 324.5 408.7C321.1 410.2 314.2 412.6 304.4 413.3C299.1 413.6 293.9 413.3 291 411.1C287 408.1 286.5 404.4 288.6 399.3C290.4 395 303.4 380.1 314.3 367.1C317.4 363.5 320.2 359.8 322.8 356.4C322.7 356.3 322.7 356.3 322.7 356.3C322.7 356.3 324.7 353.8 327.9 349.3C323.9 340.7 318.9 331.8 316.5 323.7C312.4 309.9 311.2 301.6 311.2 301.6C311.2 301.6 297.9 335.6 284.1 362.8C273.4 383.9 266.2 396.6 263 402.2C263 402.3 263 402.4 263 402.4C263 402.4 262.5 403.2 261.7 404.5C261.3 405.2 261.1 405.5 261.1 405.5C261.1 405.5 261.1 405.5 261.1 405.4C257.5 410.7 249.4 421.1 241.4 421.1C219.4 421.1 227.5 376.5 227.5 376.5C227.5 376.5 221 393 213.8 407.2C207.9 418.8 202.6 428.6 190.8 428.6C187.4 428.6 182.1 428.5 177.6 424.3C167.5 414.7 159.8 390.3 161.3 371.5C162.5 355.5 165 344.4 168.4 335.1C162.4 338.3 155.4 342.2 148.3 346.4C144.7 348.5 141 350.7 137.4 352.8C137.6 353 137.7 353.2 137.8 353.4C146.9 370.9 149.3 409.1 129.6 438.5C109.9 467.9 73.2 485.7 37.5 475.8C26 472.6 8.6 448.8 23.6 415.6C36.8 386.3 89.8 358.6 103.7 351.7C104.8 351.1 106.1 350.4 107.5 349.6C79.7 325.3 10.2 292.5 0.5 242.1C-2.2 227.9 4.4 194 46.1 155C81.2 122.2 130 97 175 81C250.7 54.1 330.7 70 342.8 118.2C354.9 165.7 313.7 222.4 261 242.8C213.9 261 175 258.1 159 252.9C140.9 247 130.2 235 127.6 228.2C126.6 225.6 124.8 221.1 127.6 219.6C129.3 218.6 130 218.9 134.6 223.9C139 228.7 156.4 241.5 189.6 237.8C276.6 228 329.1 160.4 312.5 124C300.9 98.5 233.9 87 149.7 128.5C47.4 179.5 41.9 221.5 41 237.5C38.6 281.4 95.2 304.5 125.8 337.2C126.2 337.6 126.6 338.1 127 338.5C132.7 335.4 138.8 332.1 144.7 328.8C160.2 320.3 174.7 312.4 181.5 308.7C192.3 293.1 214.1 275.8 229.9 275.8C255.2 275.8 246.5 312 246.5 312C246.5 312 247 310.3 247.7 310.3C248.4 310.3 251.2 305.5 259 308.4C267 311.3 265.2 316.9 265.2 317.5C265.3 318.6 255.8 350.8 251.8 371.5C249.9 381.3 251 388.5 251.6 388.5C252.4 388.5 254 386 255.5 383.3C255.5 383.2 255.5 383.2 255.5 383.2C255.5 383.2 256.6 381.2 258.5 377.5C258.8 377 258.9 376.7 258.9 376.7C261.1 372.4 264.2 366.1 267.8 358.2C274.8 342.8 301.5 283.2 303.8 276.6C306.1 270 307.3 263.2 308.4 260.3C309.5 257.4 319 255.2 330 255.3C341 255.4 342.1 260.1 342.2 261.1C342.3 262.1 336.9 275.2 335.7 284.4C334.5 293.6 335.7 298.3 336.7 306C337.4 311.1 340.6 317.5 344.3 324.8C355.8 306.1 375.9 270.4 377.8 260.4C379.2 253.6 381.3 247 382.4 244.1C383.5 241.2 393 239 404 239.1C415 239.2 416.1 243.9 416.2 244.9C416.3 245.9 410.9 259 409.7 268.2C408.5 277.4 409.7 282.1 410.7 289.8C411.6 296.4 416.7 305.4 421.8 315.5C435.7 308.7 452.3 304.1 471.4 304C520.9 303.7 548.9 335.8 547.4 365.2ZM120.5 360.8C119.7 361.3 118.9 361.8 118.1 362.3C118.1 362.3 117.7 362.5 117 362.9C112.9 365.4 109.5 367.4 107.2 368.8C97.1 375.1 81.9 385.4 70.1 396.5C50.7 414.7 46.7 440.1 56.9 446C66.4 451.5 88.4 445 104.2 427.8C120.8 409.7 127.6 386.8 120.5 360.8ZM233.1 298.9C230.8 295 221.3 298.2 212.7 307.8C207.4 313.8 198.3 329.2 194 342.1C185.5 367.8 189.2 393.8 195.2 395.4C202.2 397.3 213.7 363 219.2 349.6C222.6 341.2 236 304 233.1 298.9ZM335.5 365.2C335.5 364.8 335.5 364.3 335.5 363.9C332.1 368.4 328.9 372.4 326.2 375.8C321.5 381.6 309.6 394.4 309.6 394.4C309.6 394.4 307.9 396 308.6 396.4C309.6 397 311.8 396.2 314.1 395C320.7 390.8 335.5 380.5 335.5 365.2ZM409.5 348.8C409.6 345.9 408.9 342.8 407.9 339.6C399 347.5 393.8 355.7 391.6 360.6C385.9 373.1 385.6 377.1 387.3 378.3C395.6 375.3 409.4 368.1 409.5 348.8Z" />
	<g id="Layer">
	</g>
	<g id="Layer">
	</g>
	<g id="Layer">
	</g>
	<g id="Layer">
	</g>
	<g id="Layer">
	</g>
	<g id="Layer">
	</g>
</svg>