<svg version="1.2" baseProfile="tiny-ps" xmlns="http://www.w3.org/2000/svg" viewBox="0 0 3916 3916" width="3916" height="3916">
	<title>Webpack-svg</title>
	<style>
		tspan { white-space:pre }
		.shp0 { fill: #ffffff } 
		.shp1 { fill: #8ed6fb } 
		.shp2 { fill: #1c78c0 } 
		.shp3 { fill: #1a1c1c } 
	</style>
	<path id="path48" class="shp0" d="M510.02 1411.02L1003.95 1690.4L1003.95 2249.3L510.02 2528.68L16.09 2249.3L16.09 1690.4L510.02 1411.02Z" />
	<path id="path50" fill-rule="evenodd" class="shp1" d="M915.76 2230.03L526.35 2450.32L526.35 2278.78L768.98 2145.28L915.76 2230.03ZM799.99 2123.71L799.99 1827.61L942.43 1745.28L942.43 2205.9L799.99 2123.71ZM249.4 2145.28L492.15 2278.78L492.15 2450.32L102.75 2230.03L249.4 2145.28ZM76.07 2205.9L76.07 1745.28L218.51 1827.61L218.51 2123.71L76.07 2205.9ZM92.79 1715.42L492.15 1489.51L492.15 1655.3L236.25 1796.08L234.21 1797.23L92.79 1715.42ZM784.3 1797.1L782.25 1795.95L526.35 1655.3L526.35 1489.51L925.71 1715.42L784.3 1797.1Z" />
	<path id="path52" fill-rule="evenodd" class="shp2" d="M492.15 2239.73L252.71 2108.01L252.71 1847.26L492.15 1985.48L492.15 2239.73ZM526.35 1985.48L765.79 1847.26L765.79 2108.14L526.35 2239.73L526.35 1985.48ZM268.92 1817.14L509.25 1685.04L749.58 1817.14L509.25 1955.87L268.92 1817.14Z" />
	<path id="path54" fill-rule="evenodd" class="shp3" d="M1436.36 1917.46L1369.99 2146.55L1264.7 2146.55L1158 1788.93L1260.61 1788.93L1323.54 2042.66L1391.95 1788.93L1480.78 1788.93L1548.55 2042.66L1612.11 1788.93L1714.72 1788.93L1607.39 2146.55L1502.09 2146.55L1436.36 1917.46ZM1720.21 1968.77C1720.21 1860.66 1793.35 1780 1895.32 1780C2006.11 1780 2069.03 1853.9 2069.03 1970.81C2069.03 1977.7 2069.03 1984.46 2068.39 1991.36L1816.57 1991.36C1818.62 2039.22 1856.91 2073.42 1909.62 2073.42C1958.24 2073.42 1986.32 2044.71 1996.53 2029.65L2058.82 2076.87C2045.16 2102.14 1997.3 2155.49 1908.34 2155.49C1793.35 2155.49 1720.21 2076.1 1720.21 1968.77ZM1973.3 1929.71C1971.26 1885.93 1939.87 1857.22 1896.73 1857.22C1852.18 1857.22 1823.47 1888.74 1819.38 1929.71L1973.3 1929.71ZM2104.76 2146.55L2104.76 1652.11L2199.08 1652.11L2199.08 1826.58C2208.02 1814.33 2243.63 1780.13 2305.14 1780.13C2407.76 1780.13 2474.77 1857.34 2474.77 1968.13C2474.77 2078.27 2402.27 2155.49 2299.66 2155.49C2238.78 2155.49 2203.17 2121.28 2193.6 2109.67L2193.6 2146.55L2104.76 2146.55ZM2287.91 2072.02C2341.26 2072.02 2379.55 2032.33 2379.55 1968.77C2379.55 1906.61 2342.67 1863.47 2287.91 1863.47C2235.97 1863.47 2196.28 1901.76 2196.28 1968.77C2196.28 2025.43 2230.48 2072.02 2287.91 2072.02ZM2511.4 2274.44L2511.4 1788.81L2600.35 1788.81L2600.35 1826.46C2609.93 1814.2 2645.54 1780 2706.42 1780C2809.03 1780 2881.53 1857.98 2881.53 1967.36C2881.53 2078.14 2814.52 2155.36 2711.9 2155.36C2650.26 2155.36 2614.78 2121.16 2605.84 2109.54L2605.84 2274.44L2511.4 2274.44ZM2694.8 2072.02C2749.56 2072.02 2786.44 2029.01 2786.44 1966.72C2786.44 1903.16 2748.15 1863.47 2694.8 1863.47C2637.37 1863.47 2603.16 1909.93 2603.16 1966.72C2603.16 2033.73 2642.86 2072.02 2694.8 2072.02ZM2898.63 2035.77C2898.63 1965.32 2954.02 1917.46 3037.49 1917.59C3073.74 1917.59 3101.82 1928.43 3114.83 1937.37L3114.83 1914.14C3114.83 1882.61 3091.61 1861.43 3049.87 1861.43C3014.26 1861.43 2981.46 1873.04 2954.79 1886.7L2919.18 1822.37C2951.34 1800.55 3005.33 1780 3060.08 1780C3174.95 1780 3209.15 1840.11 3209.15 1920.14L3209.15 2146.55L3125.68 2146.55L3119.56 2123.33C3101.05 2143.24 3073.74 2155.49 3032.64 2155.49C2960.15 2155.49 2898.63 2110.95 2898.63 2035.77ZM3055.23 2082.23C3090.71 2082.23 3116.75 2063.08 3116.75 2032.96C3116.75 2001.57 3090.71 1983.06 3054.46 1983.06C3018.22 1983.06 2992.95 2003.61 2992.95 2032.96C2992.95 2062.45 3019.75 2082.23 3055.23 2082.23ZM3438.25 2072.02C3474.5 2072.02 3503.21 2052.87 3519.04 2039.98L3544.31 2117.2C3523.89 2133.66 3484.84 2155.49 3432.89 2155.49C3321.47 2155.49 3242.08 2077.51 3242.08 1968.77C3242.08 1860.02 3323.51 1780 3432.25 1780C3484.84 1780 3521.85 1800.55 3545.08 1818.29L3518.4 1897.67C3502.7 1883.25 3475.26 1863.47 3434.93 1863.47C3374.05 1863.47 3336.4 1910.69 3336.4 1968.13C3336.4 2028.88 3378.77 2072.02 3438.25 2072.02ZM3579.79 1652.11L3674.11 1652.11L3674.11 1939.28L3788.98 1788.81L3895.04 1788.81L3769.2 1950.9L3904.61 2146.55L3793.83 2146.55L3674.11 1961.87L3674.11 2146.55L3579.79 2146.55L3579.79 1652.11Z" />
</svg>